<svg xmlns="http://www.w3.org/2000/svg" xmlns:xlink="http://www.w3.org/1999/xlink" width="500" zoomAndPan="magnify" viewBox="0 0 375 374.999991" height="500" preserveAspectRatio="xMidYMid meet" version="1.0"><defs><g/></defs><g fill="#ffffff" fill-opacity="1"><g transform="translate(91.869843, 194.999987)"><g><path d="M 3.375 -12.375 L 3.375 0 L 1.6875 0 L 1.6875 -13.5 L 4.5 -13.5 L 12.359375 -1.6875 L 20.234375 -13.5 L 22.921875 -13.5 L 22.921875 0 L 21.234375 0 L 21.234375 -12.1875 L 13.21875 0 L 11.515625 0 Z M 3.375 -12.375 "/></g></g><g transform="translate(116.479217, 194.999987)"><g><path d="M 17.453125 -13.5 L 17.453125 -6.75 C 17.453125 -5.957031 17.441406 -5.234375 17.421875 -4.578125 C 17.398438 -3.921875 17.332031 -3.328125 17.21875 -2.796875 C 17.101562 -2.273438 16.921875 -1.820312 16.671875 -1.4375 C 16.421875 -1.050781 16.066406 -0.726562 15.609375 -0.46875 C 15.160156 -0.21875 14.582031 -0.03125 13.875 0.09375 C 13.164062 0.21875 12.296875 0.28125 11.265625 0.28125 L 7.3125 0.28125 C 6.28125 0.28125 5.410156 0.21875 4.703125 0.09375 C 3.992188 -0.03125 3.410156 -0.21875 2.953125 -0.46875 C 2.503906 -0.726562 2.15625 -1.050781 1.90625 -1.4375 C 1.65625 -1.820312 1.472656 -2.273438 1.359375 -2.796875 C 1.242188 -3.328125 1.175781 -3.921875 1.15625 -4.578125 C 1.144531 -5.234375 1.140625 -5.957031 1.140625 -6.75 L 1.140625 -13.5 L 2.828125 -13.5 L 2.828125 -6.75 C 2.828125 -5.90625 2.832031 -5.179688 2.84375 -4.578125 C 2.851562 -3.972656 2.898438 -3.460938 2.984375 -3.046875 C 3.066406 -2.628906 3.195312 -2.289062 3.375 -2.03125 C 3.550781 -1.78125 3.804688 -1.585938 4.140625 -1.453125 C 4.484375 -1.316406 4.910156 -1.226562 5.421875 -1.1875 C 5.929688 -1.144531 6.5625 -1.125 7.3125 -1.125 L 11.265625 -1.125 C 12.015625 -1.125 12.644531 -1.144531 13.15625 -1.1875 C 13.675781 -1.226562 14.097656 -1.316406 14.421875 -1.453125 C 14.753906 -1.585938 15.007812 -1.78125 15.1875 -2.03125 C 15.375 -2.289062 15.507812 -2.628906 15.59375 -3.046875 C 15.675781 -3.460938 15.722656 -3.972656 15.734375 -4.578125 C 15.753906 -5.179688 15.765625 -5.90625 15.765625 -6.75 L 15.75 -13.5 Z M 17.453125 -13.5 "/></g></g><g transform="translate(135.050504, 194.999987)"><g><path d="M 10.203125 -7.59375 C 11.117188 -7.59375 11.910156 -7.550781 12.578125 -7.46875 C 13.242188 -7.394531 13.800781 -7.285156 14.25 -7.140625 C 14.707031 -6.992188 15.066406 -6.804688 15.328125 -6.578125 C 15.597656 -6.359375 15.804688 -6.101562 15.953125 -5.8125 C 16.109375 -5.53125 16.207031 -5.210938 16.25 -4.859375 C 16.289062 -4.515625 16.3125 -4.140625 16.3125 -3.734375 C 16.3125 -3.316406 16.273438 -2.925781 16.203125 -2.5625 C 16.128906 -2.207031 16 -1.878906 15.8125 -1.578125 C 15.625 -1.285156 15.367188 -1.019531 15.046875 -0.78125 C 14.722656 -0.550781 14.3125 -0.351562 13.8125 -0.1875 C 13.3125 -0.0195312 12.710938 0.101562 12.015625 0.1875 C 11.316406 0.269531 10.5 0.3125 9.5625 0.3125 L 7.3125 0.3125 C 6.46875 0.3125 5.726562 0.28125 5.09375 0.21875 C 4.46875 0.15625 3.925781 0.0625 3.46875 -0.0625 C 3.007812 -0.195312 2.628906 -0.363281 2.328125 -0.5625 C 2.023438 -0.769531 1.785156 -1.007812 1.609375 -1.28125 C 1.429688 -1.5625 1.304688 -1.875 1.234375 -2.21875 C 1.171875 -2.570312 1.140625 -2.957031 1.140625 -3.375 L 2.828125 -3.375 C 2.828125 -2.84375 2.898438 -2.425781 3.046875 -2.125 C 3.203125 -1.832031 3.453125 -1.609375 3.796875 -1.453125 C 4.148438 -1.304688 4.613281 -1.210938 5.1875 -1.171875 C 5.757812 -1.140625 6.46875 -1.125 7.3125 -1.125 L 9.5625 -1.125 C 10.550781 -1.125 11.367188 -1.171875 12.015625 -1.265625 C 12.660156 -1.359375 13.175781 -1.503906 13.5625 -1.703125 C 13.957031 -1.910156 14.234375 -2.179688 14.390625 -2.515625 C 14.546875 -2.847656 14.625 -3.253906 14.625 -3.734375 C 14.625 -4.203125 14.566406 -4.59375 14.453125 -4.90625 C 14.347656 -5.226562 14.132812 -5.484375 13.8125 -5.671875 C 13.5 -5.859375 13.050781 -5.988281 12.46875 -6.0625 C 11.894531 -6.144531 11.140625 -6.1875 10.203125 -6.1875 L 7.875 -6.1875 C 6.84375 -6.1875 5.957031 -6.222656 5.21875 -6.296875 C 4.488281 -6.378906 3.875 -6.488281 3.375 -6.625 C 2.875 -6.769531 2.472656 -6.945312 2.171875 -7.15625 C 1.878906 -7.375 1.65625 -7.617188 1.5 -7.890625 C 1.34375 -8.171875 1.238281 -8.476562 1.1875 -8.8125 C 1.144531 -9.15625 1.125 -9.523438 1.125 -9.921875 C 1.125 -10.328125 1.160156 -10.703125 1.234375 -11.046875 C 1.304688 -11.398438 1.441406 -11.71875 1.640625 -12 C 1.835938 -12.289062 2.109375 -12.546875 2.453125 -12.765625 C 2.804688 -12.992188 3.253906 -13.179688 3.796875 -13.328125 C 4.335938 -13.472656 4.988281 -13.582031 5.75 -13.65625 C 6.507812 -13.738281 7.40625 -13.78125 8.4375 -13.78125 L 10.125 -13.78125 C 10.96875 -13.78125 11.707031 -13.75 12.34375 -13.6875 C 12.976562 -13.625 13.519531 -13.523438 13.96875 -13.390625 C 14.425781 -13.265625 14.804688 -13.101562 15.109375 -12.90625 C 15.410156 -12.707031 15.648438 -12.472656 15.828125 -12.203125 C 16.015625 -11.929688 16.140625 -11.625 16.203125 -11.28125 C 16.273438 -10.9375 16.3125 -10.550781 16.3125 -10.125 L 14.625 -10.125 C 14.625 -10.65625 14.546875 -11.066406 14.390625 -11.359375 C 14.242188 -11.660156 13.992188 -11.882812 13.640625 -12.03125 C 13.285156 -12.1875 12.820312 -12.28125 12.25 -12.3125 C 11.675781 -12.351562 10.96875 -12.375 10.125 -12.375 L 8.4375 -12.375 C 7.3125 -12.375 6.382812 -12.332031 5.65625 -12.25 C 4.9375 -12.175781 4.363281 -12.046875 3.9375 -11.859375 C 3.519531 -11.671875 3.226562 -11.414062 3.0625 -11.09375 C 2.894531 -10.78125 2.8125 -10.390625 2.8125 -9.921875 C 2.8125 -9.617188 2.832031 -9.351562 2.875 -9.125 C 2.914062 -8.90625 3 -8.707031 3.125 -8.53125 C 3.25 -8.351562 3.425781 -8.207031 3.65625 -8.09375 C 3.882812 -7.976562 4.1875 -7.878906 4.5625 -7.796875 C 4.9375 -7.722656 5.394531 -7.671875 5.9375 -7.640625 C 6.476562 -7.609375 7.125 -7.59375 7.875 -7.59375 Z M 10.203125 -7.59375 "/></g></g><g transform="translate(152.488003, 194.999987)"><g><path d="M 14.90625 -3.09375 L 4.21875 -3.09375 L 2.53125 0 L 0.5625 0 L 8.4375 -13.5 L 10.6875 -13.5 L 18.5625 0 L 16.59375 0 Z M 14.0625 -4.5 L 9.5625 -12.375 L 5.0625 -4.5 Z M 14.0625 -4.5 "/></g></g><g transform="translate(171.613002, 194.999987)"><g/></g><g transform="translate(175.550502, 194.999987)"><g><path d="M 15.734375 -9.28125 C 15.734375 -9.988281 15.65625 -10.546875 15.5 -10.953125 C 15.351562 -11.359375 15.101562 -11.664062 14.75 -11.875 C 14.40625 -12.09375 13.945312 -12.226562 13.375 -12.28125 C 12.800781 -12.34375 12.09375 -12.375 11.25 -12.375 L 7.296875 -12.375 C 6.546875 -12.375 5.914062 -12.351562 5.40625 -12.3125 C 4.894531 -12.269531 4.472656 -12.179688 4.140625 -12.046875 C 3.804688 -11.910156 3.546875 -11.710938 3.359375 -11.453125 C 3.179688 -11.203125 3.050781 -10.867188 2.96875 -10.453125 C 2.882812 -10.035156 2.835938 -9.523438 2.828125 -8.921875 C 2.816406 -8.316406 2.8125 -7.59375 2.8125 -6.75 C 2.8125 -5.90625 2.816406 -5.179688 2.828125 -4.578125 C 2.847656 -3.972656 2.898438 -3.460938 2.984375 -3.046875 C 3.066406 -2.628906 3.195312 -2.289062 3.375 -2.03125 C 3.550781 -1.78125 3.804688 -1.585938 4.140625 -1.453125 C 4.472656 -1.316406 4.894531 -1.226562 5.40625 -1.1875 C 5.914062 -1.144531 6.546875 -1.125 7.296875 -1.125 L 11.25 -1.125 C 11.90625 -1.125 12.46875 -1.140625 12.9375 -1.171875 C 13.414062 -1.210938 13.820312 -1.28125 14.15625 -1.375 C 14.488281 -1.46875 14.757812 -1.59375 14.96875 -1.75 C 15.175781 -1.914062 15.335938 -2.125 15.453125 -2.375 C 15.566406 -2.625 15.640625 -2.921875 15.671875 -3.265625 C 15.710938 -3.617188 15.734375 -4.03125 15.734375 -4.5 L 17.421875 -4.5 C 17.421875 -3.9375 17.382812 -3.425781 17.3125 -2.96875 C 17.25 -2.519531 17.128906 -2.117188 16.953125 -1.765625 C 16.773438 -1.410156 16.535156 -1.101562 16.234375 -0.84375 C 15.929688 -0.582031 15.550781 -0.367188 15.09375 -0.203125 C 14.644531 -0.0351562 14.101562 0.0820312 13.46875 0.15625 C 12.832031 0.238281 12.09375 0.28125 11.25 0.28125 L 7.296875 0.28125 C 6.265625 0.28125 5.394531 0.21875 4.6875 0.09375 C 3.988281 -0.03125 3.410156 -0.21875 2.953125 -0.46875 C 2.492188 -0.726562 2.140625 -1.050781 1.890625 -1.4375 C 1.640625 -1.820312 1.457031 -2.273438 1.34375 -2.796875 C 1.226562 -3.328125 1.160156 -3.921875 1.140625 -4.578125 C 1.128906 -5.234375 1.125 -5.957031 1.125 -6.75 C 1.125 -7.550781 1.128906 -8.28125 1.140625 -8.9375 C 1.160156 -9.59375 1.226562 -10.179688 1.34375 -10.703125 C 1.457031 -11.222656 1.640625 -11.675781 1.890625 -12.0625 C 2.140625 -12.445312 2.492188 -12.765625 2.953125 -13.015625 C 3.410156 -13.273438 3.988281 -13.46875 4.6875 -13.59375 C 5.394531 -13.71875 6.265625 -13.78125 7.296875 -13.78125 L 11.25 -13.78125 C 12.09375 -13.78125 12.832031 -13.738281 13.46875 -13.65625 C 14.101562 -13.582031 14.644531 -13.460938 15.09375 -13.296875 C 15.550781 -13.140625 15.929688 -12.9375 16.234375 -12.6875 C 16.535156 -12.445312 16.773438 -12.160156 16.953125 -11.828125 C 17.128906 -11.492188 17.25 -11.113281 17.3125 -10.6875 C 17.382812 -10.269531 17.421875 -9.800781 17.421875 -9.28125 Z M 15.734375 -9.28125 "/></g></g><g transform="translate(194.104212, 194.999987)"><g><path d="M 1.6875 0 L 1.6875 -13.5 L 15.1875 -13.5 L 15.1875 -12.09375 L 3.375 -12.09375 L 3.375 -7.59375 L 14.625 -7.59375 L 14.625 -6.1875 L 3.375 -6.1875 L 3.375 -1.40625 L 15.1875 -1.40625 L 15.1875 0 Z M 1.6875 0 "/></g></g><g transform="translate(209.854211, 194.999987)"><g><path d="M 14.34375 -13.5 L 16.875 -13.5 L 7.3125 -6.890625 L 17.15625 0 L 14.625 0 L 5.625 -6.1875 L 3.375 -6.1875 L 3.375 0 L 1.6875 0 L 1.6875 -13.5 L 3.375 -13.5 L 3.375 -7.59375 L 5.625 -7.59375 Z M 14.34375 -13.5 "/></g></g><g transform="translate(227.572959, 194.999987)"><g><path d="M 15.734375 -9.28125 C 15.734375 -9.988281 15.65625 -10.546875 15.5 -10.953125 C 15.351562 -11.359375 15.101562 -11.664062 14.75 -11.875 C 14.40625 -12.09375 13.945312 -12.226562 13.375 -12.28125 C 12.800781 -12.34375 12.09375 -12.375 11.25 -12.375 L 7.296875 -12.375 C 6.546875 -12.375 5.914062 -12.351562 5.40625 -12.3125 C 4.894531 -12.269531 4.472656 -12.179688 4.140625 -12.046875 C 3.804688 -11.910156 3.546875 -11.710938 3.359375 -11.453125 C 3.179688 -11.203125 3.050781 -10.867188 2.96875 -10.453125 C 2.882812 -10.035156 2.835938 -9.523438 2.828125 -8.921875 C 2.816406 -8.316406 2.8125 -7.59375 2.8125 -6.75 C 2.8125 -5.90625 2.816406 -5.179688 2.828125 -4.578125 C 2.847656 -3.972656 2.898438 -3.460938 2.984375 -3.046875 C 3.066406 -2.628906 3.195312 -2.289062 3.375 -2.03125 C 3.550781 -1.78125 3.804688 -1.585938 4.140625 -1.453125 C 4.472656 -1.316406 4.894531 -1.226562 5.40625 -1.1875 C 5.914062 -1.144531 6.546875 -1.125 7.296875 -1.125 L 11.25 -1.125 C 11.90625 -1.125 12.46875 -1.140625 12.9375 -1.171875 C 13.414062 -1.210938 13.820312 -1.28125 14.15625 -1.375 C 14.488281 -1.46875 14.757812 -1.59375 14.96875 -1.75 C 15.175781 -1.914062 15.335938 -2.125 15.453125 -2.375 C 15.566406 -2.625 15.640625 -2.921875 15.671875 -3.265625 C 15.710938 -3.617188 15.734375 -4.03125 15.734375 -4.5 L 17.421875 -4.5 C 17.421875 -3.9375 17.382812 -3.425781 17.3125 -2.96875 C 17.25 -2.519531 17.128906 -2.117188 16.953125 -1.765625 C 16.773438 -1.410156 16.535156 -1.101562 16.234375 -0.84375 C 15.929688 -0.582031 15.550781 -0.367188 15.09375 -0.203125 C 14.644531 -0.0351562 14.101562 0.0820312 13.46875 0.15625 C 12.832031 0.238281 12.09375 0.28125 11.25 0.28125 L 7.296875 0.28125 C 6.265625 0.28125 5.394531 0.21875 4.6875 0.09375 C 3.988281 -0.03125 3.410156 -0.21875 2.953125 -0.46875 C 2.492188 -0.726562 2.140625 -1.050781 1.890625 -1.4375 C 1.640625 -1.820312 1.457031 -2.273438 1.34375 -2.796875 C 1.226562 -3.328125 1.160156 -3.921875 1.140625 -4.578125 C 1.128906 -5.234375 1.125 -5.957031 1.125 -6.75 C 1.125 -7.550781 1.128906 -8.28125 1.140625 -8.9375 C 1.160156 -9.59375 1.226562 -10.179688 1.34375 -10.703125 C 1.457031 -11.222656 1.640625 -11.675781 1.890625 -12.0625 C 2.140625 -12.445312 2.492188 -12.765625 2.953125 -13.015625 C 3.410156 -13.273438 3.988281 -13.46875 4.6875 -13.59375 C 5.394531 -13.71875 6.265625 -13.78125 7.296875 -13.78125 L 11.25 -13.78125 C 12.09375 -13.78125 12.832031 -13.738281 13.46875 -13.65625 C 14.101562 -13.582031 14.644531 -13.460938 15.09375 -13.296875 C 15.550781 -13.140625 15.929688 -12.9375 16.234375 -12.6875 C 16.535156 -12.445312 16.773438 -12.160156 16.953125 -11.828125 C 17.128906 -11.492188 17.25 -11.113281 17.3125 -10.6875 C 17.382812 -10.269531 17.421875 -9.800781 17.421875 -9.28125 Z M 15.734375 -9.28125 "/></g></g><g transform="translate(246.126669, 194.999987)"><g><path d="M 1.6875 0 L 1.6875 -13.5 L 15.1875 -13.5 L 15.1875 -12.09375 L 3.375 -12.09375 L 3.375 -7.59375 L 14.625 -7.59375 L 14.625 -6.1875 L 3.375 -6.1875 L 3.375 -1.40625 L 15.1875 -1.40625 L 15.1875 0 Z M 1.6875 0 "/></g></g><g transform="translate(261.876668, 194.999987)"><g><path d="M 3.375 0 L 1.6875 0 L 1.6875 -13.5 L 4.65625 -13.5 L 17.03125 -1.6875 L 17.03125 -13.5 L 18.71875 -13.5 L 18.71875 0 L 16.46875 0 L 3.375 -12.09375 Z M 3.375 0 "/></g></g></g></svg>