<svg xmlns="http://www.w3.org/2000/svg" xmlns:xlink="http://www.w3.org/1999/xlink" width="500" zoomAndPan="magnify" viewBox="0 0 375 374.999991" height="500" preserveAspectRatio="xMidYMid meet" version="1.0"><defs><g/><clipPath id="44ec6d9088"><path d="M 251.730469 215.800781 L 293.027344 215.800781 L 293.027344 257.101562 L 251.730469 257.101562 Z M 251.730469 215.800781 " clip-rule="nonzero"/></clipPath><clipPath id="e9f006f8ab"><path d="M 272.378906 215.800781 C 260.976562 215.800781 251.730469 225.046875 251.730469 236.449219 C 251.730469 247.855469 260.976562 257.101562 272.378906 257.101562 C 283.785156 257.101562 293.027344 247.855469 293.027344 236.449219 C 293.027344 225.046875 283.785156 215.800781 272.378906 215.800781 Z M 272.378906 215.800781 " clip-rule="nonzero"/></clipPath><clipPath id="744895a2e2"><path d="M 39.390625 74.253906 L 113.210938 74.253906 L 113.210938 148.074219 L 39.390625 148.074219 Z M 39.390625 74.253906 " clip-rule="nonzero"/></clipPath><clipPath id="26c248b97d"><path d="M 76.300781 74.253906 C 55.914062 74.253906 39.390625 90.777344 39.390625 111.164062 C 39.390625 131.546875 55.914062 148.074219 76.300781 148.074219 C 96.683594 148.074219 113.210938 131.546875 113.210938 111.164062 C 113.210938 90.777344 96.683594 74.253906 76.300781 74.253906 Z M 76.300781 74.253906 " clip-rule="nonzero"/></clipPath><clipPath id="8dd974ed58"><path d="M 263.65625 227.730469 L 281.101562 227.730469 L 281.101562 245.171875 L 263.65625 245.171875 Z M 263.65625 227.730469 " clip-rule="nonzero"/></clipPath><clipPath id="a90dc84371"><path d="M 272.378906 227.730469 C 267.5625 227.730469 263.65625 231.632812 263.65625 236.449219 C 263.65625 241.269531 267.5625 245.171875 272.378906 245.171875 C 277.195312 245.171875 281.101562 241.269531 281.101562 236.449219 C 281.101562 231.632812 277.195312 227.730469 272.378906 227.730469 Z M 272.378906 227.730469 " clip-rule="nonzero"/></clipPath></defs><g fill="#000000" fill-opacity="1"><g transform="translate(59.711951, 230.164014)"><g><path d="M 106.796875 0 L 101.1875 -70.390625 L 100.46875 -70.390625 L 76.140625 -0.71875 L 60.015625 -0.71875 L 35.703125 -70.390625 L 34.984375 -70.390625 L 29.359375 0 L 2.296875 0 L 12.953125 -118.75 L 41.734375 -118.75 L 68.078125 -50.234375 L 94.421875 -118.75 L 123.203125 -118.75 L 133.859375 0 Z M 106.796875 0 "/></g></g></g><g fill="#ffffff" fill-opacity="1"><g transform="translate(169.944823, 240.039786)"><g><path d="M 83.375 -28.40625 C 88.164062 -28.40625 92.816406 -29.128906 97.328125 -30.578125 C 101.835938 -32.023438 105.148438 -33.414062 107.265625 -34.75 L 110.4375 -36.921875 L 123.8125 -10.1875 C 123.363281 -9.851562 122.75 -9.40625 121.96875 -8.84375 C 121.1875 -8.289062 119.375 -7.265625 116.53125 -5.765625 C 113.695312 -4.265625 110.660156 -2.957031 107.421875 -1.84375 C 104.191406 -0.726562 99.957031 0.269531 94.71875 1.15625 C 89.488281 2.050781 84.09375 2.5 78.53125 2.5 C 65.71875 2.5 53.570312 -0.644531 42.09375 -6.9375 C 30.625 -13.226562 21.378906 -21.882812 14.359375 -32.90625 C 7.347656 -43.9375 3.84375 -55.859375 3.84375 -68.671875 C 3.84375 -78.359375 5.898438 -87.65625 10.015625 -96.5625 C 14.140625 -105.476562 19.625 -113.109375 26.46875 -119.453125 C 33.320312 -125.804688 41.316406 -130.875 50.453125 -134.65625 C 59.585938 -138.445312 68.945312 -140.34375 78.53125 -140.34375 C 87.4375 -140.34375 95.648438 -139.285156 103.171875 -137.171875 C 110.691406 -135.054688 116.007812 -132.941406 119.125 -130.828125 L 123.8125 -127.640625 L 110.4375 -100.921875 C 109.65625 -101.585938 108.484375 -102.394531 106.921875 -103.34375 C 105.367188 -104.289062 102.253906 -105.539062 97.578125 -107.09375 C 92.898438 -108.65625 88.164062 -109.4375 83.375 -109.4375 C 75.800781 -109.4375 69.003906 -108.207031 62.984375 -105.75 C 56.972656 -103.300781 52.210938 -100.070312 48.703125 -96.0625 C 45.191406 -92.0625 42.515625 -87.75 40.671875 -83.125 C 38.835938 -78.5 37.921875 -73.789062 37.921875 -69 C 37.921875 -58.53125 41.847656 -49.144531 49.703125 -40.84375 C 57.554688 -32.550781 68.78125 -28.40625 83.375 -28.40625 Z M 83.375 -28.40625 "/></g></g></g><g fill="#000000" fill-opacity="1"><g transform="translate(177.981666, 234.676153)"><g><path d="M 76.703125 -26.125 C 81.109375 -26.125 85.382812 -26.789062 89.53125 -28.125 C 93.675781 -29.457031 96.722656 -30.738281 98.671875 -31.96875 L 101.59375 -33.96875 L 113.890625 -9.375 C 113.484375 -9.070312 112.921875 -8.660156 112.203125 -8.140625 C 111.484375 -7.628906 109.816406 -6.679688 107.203125 -5.296875 C 104.585938 -3.921875 101.796875 -2.71875 98.828125 -1.6875 C 95.859375 -0.664062 91.960938 0.253906 87.140625 1.078125 C 82.328125 1.898438 77.359375 2.3125 72.234375 2.3125 C 60.453125 2.3125 49.285156 -0.582031 38.734375 -6.375 C 28.179688 -12.164062 19.675781 -20.132812 13.21875 -30.28125 C 6.757812 -40.425781 3.53125 -51.390625 3.53125 -63.171875 C 3.53125 -72.085938 5.425781 -80.644531 9.21875 -88.84375 C 13.007812 -97.039062 18.054688 -104.054688 24.359375 -109.890625 C 30.660156 -115.734375 38.007812 -120.394531 46.40625 -123.875 C 54.8125 -127.363281 63.421875 -129.109375 72.234375 -129.109375 C 80.429688 -129.109375 87.988281 -128.132812 94.90625 -126.1875 C 101.820312 -124.238281 106.71875 -122.289062 109.59375 -120.34375 L 113.890625 -117.421875 L 101.59375 -92.84375 C 100.875 -93.457031 99.796875 -94.195312 98.359375 -95.0625 C 96.929688 -95.9375 94.066406 -97.085938 89.765625 -98.515625 C 85.460938 -99.953125 81.109375 -100.671875 76.703125 -100.671875 C 69.734375 -100.671875 63.476562 -99.539062 57.9375 -97.28125 C 52.40625 -95.03125 48.023438 -92.0625 44.796875 -88.375 C 41.578125 -84.6875 39.117188 -80.71875 37.421875 -76.46875 C 35.734375 -72.21875 34.890625 -67.890625 34.890625 -63.484375 C 34.890625 -53.847656 38.5 -45.210938 45.71875 -37.578125 C 52.945312 -29.941406 63.273438 -26.125 76.703125 -26.125 Z M 76.703125 -26.125 "/></g></g></g><g clip-path="url(#44ec6d9088)"><g clip-path="url(#e9f006f8ab)"><path fill="#ffffff" d="M 251.730469 215.800781 L 293.027344 215.800781 L 293.027344 257.101562 L 251.730469 257.101562 Z M 251.730469 215.800781 " fill-opacity="1" fill-rule="nonzero"/></g></g><g clip-path="url(#744895a2e2)"><g clip-path="url(#26c248b97d)"><path fill="#ffffff" d="M 39.390625 74.253906 L 113.210938 74.253906 L 113.210938 148.074219 L 39.390625 148.074219 Z M 39.390625 74.253906 " fill-opacity="1" fill-rule="nonzero"/></g></g><g clip-path="url(#8dd974ed58)"><g clip-path="url(#a90dc84371)"><path fill="#000000" d="M 263.65625 227.730469 L 281.101562 227.730469 L 281.101562 245.171875 L 263.65625 245.171875 Z M 263.65625 227.730469 " fill-opacity="1" fill-rule="nonzero"/></g></g></svg>